<svg width="43" height="47" viewBox="0 0 43 47" fill="none" xmlns="http://www.w3.org/2000/svg">
<mask id="path-1-inside-1_17_82" fill="white">
<path d="M35.75 18.4167C35.0759 18.4167 34.4294 18.1489 33.9528 17.6722C33.4761 17.1956 33.2084 16.5491 33.2084 15.875C33.2084 15.2009 33.4761 14.5544 33.9528 14.0778C34.4294 13.6011 35.0759 13.3333 35.75 13.3333C36.4241 13.3333 37.0706 13.6011 37.5473 14.0778C38.0239 14.5544 38.2917 15.2009 38.2917 15.875C38.2917 16.5491 38.0239 17.1956 37.5473 17.6722C37.0706 18.1489 36.4241 18.4167 35.75 18.4167ZM20.5 18.4167H5.25002V5.70833H20.5M40.2488 11.3763L40.2742 11.3508L30.8192 1.89583L28.125 4.59L33.4879 9.95292C31.0988 10.7917 29.3959 13.1554 29.3959 15.875C29.3959 16.7094 29.5602 17.5357 29.8795 18.3066C30.1989 19.0776 30.6669 19.778 31.2569 20.3681C32.4486 21.5597 34.0648 22.2292 35.75 22.2292C36.665 22.2292 37.5038 22.0258 38.2917 21.6954V40.0208C38.2917 40.6949 38.0239 41.3414 37.5473 41.8181C37.0706 42.2947 36.4241 42.5625 35.75 42.5625C35.0759 42.5625 34.4294 42.2947 33.9528 41.8181C33.4761 41.3414 33.2084 40.6949 33.2084 40.0208V28.5833C33.2084 27.2351 32.6728 25.9422 31.7195 24.9889C30.7662 24.0356 29.4732 23.5 28.125 23.5H25.5834V5.70833C25.5834 4.36015 25.0478 3.06718 24.0945 2.11387C23.1412 1.16056 21.8482 0.625 20.5 0.625H5.25002C2.42877 0.625 0.166687 2.88708 0.166687 5.70833V46.375H25.5834V27.3125H29.3959V40.0208C29.3959 41.7061 30.0653 43.3223 31.2569 44.5139C32.4486 45.7055 34.0648 46.375 35.75 46.375C36.5845 46.375 37.4107 46.2106 38.1817 45.8913C38.9526 45.572 39.6531 45.1039 40.2431 44.5139C40.8331 43.9239 41.3012 43.2234 41.6205 42.4525C41.9398 41.6815 42.1042 40.8553 42.1042 40.0208V15.875C42.1042 14.1213 41.3925 12.52 40.2488 11.3763Z"/>
</mask>
<path d="M35.75 18.4167C35.0759 18.4167 34.4294 18.1489 33.9528 17.6722C33.4761 17.1956 33.2084 16.5491 33.2084 15.875C33.2084 15.2009 33.4761 14.5544 33.9528 14.0778C34.4294 13.6011 35.0759 13.3333 35.75 13.3333C36.4241 13.3333 37.0706 13.6011 37.5473 14.0778C38.0239 14.5544 38.2917 15.2009 38.2917 15.875C38.2917 16.5491 38.0239 17.1956 37.5473 17.6722C37.0706 18.1489 36.4241 18.4167 35.75 18.4167ZM20.5 18.4167H5.25002V5.70833H20.5M40.2488 11.3763L40.2742 11.3508L30.8192 1.89583L28.125 4.59L33.4879 9.95292C31.0988 10.7917 29.3959 13.1554 29.3959 15.875C29.3959 16.7094 29.5602 17.5357 29.8795 18.3066C30.1989 19.0776 30.6669 19.778 31.2569 20.3681C32.4486 21.5597 34.0648 22.2292 35.75 22.2292C36.665 22.2292 37.5038 22.0258 38.2917 21.6954V40.0208C38.2917 40.6949 38.0239 41.3414 37.5473 41.8181C37.0706 42.2947 36.4241 42.5625 35.75 42.5625C35.0759 42.5625 34.4294 42.2947 33.9528 41.8181C33.4761 41.3414 33.2084 40.6949 33.2084 40.0208V28.5833C33.2084 27.2351 32.6728 25.9422 31.7195 24.9889C30.7662 24.0356 29.4732 23.5 28.125 23.5H25.5834V5.70833C25.5834 4.36015 25.0478 3.06718 24.0945 2.11387C23.1412 1.16056 21.8482 0.625 20.5 0.625H5.25002C2.42877 0.625 0.166687 2.88708 0.166687 5.70833V46.375H25.5834V27.3125H29.3959V40.0208C29.3959 41.7061 30.0653 43.3223 31.2569 44.5139C32.4486 45.7055 34.0648 46.375 35.75 46.375C36.5845 46.375 37.4107 46.2106 38.1817 45.8913C38.9526 45.572 39.6531 45.1039 40.2431 44.5139C40.8331 43.9239 41.3012 43.2234 41.6205 42.4525C41.9398 41.6815 42.1042 40.8553 42.1042 40.0208V15.875C42.1042 14.1213 41.3925 12.52 40.2488 11.3763Z" fill="#FF3535"/>
<path d="M35.75 13.3333V14.3333V13.3333ZM5.25002 18.4167H4.25002V19.4167H5.25002V18.4167ZM5.25002 5.70833V4.70833H4.25002V5.70833H5.25002ZM40.2488 11.3763L39.5417 10.6691L38.8346 11.3763L39.5417 12.0834L40.2488 11.3763ZM40.2742 11.3508L40.9813 12.0579L41.6884 11.3508L40.9813 10.6437L40.2742 11.3508ZM30.8192 1.89583L31.5263 1.18873L30.8192 0.48162L30.1121 1.18873L30.8192 1.89583ZM28.125 4.59L27.4179 3.88289L26.7108 4.59L27.4179 5.29711L28.125 4.59ZM33.4879 9.95292L33.8192 10.8965L35.3191 10.3699L34.195 9.24581L33.4879 9.95292ZM35.75 22.2292V21.2292V22.2292ZM38.2917 21.6954H39.2917V20.1917L37.905 20.7732L38.2917 21.6954ZM25.5834 23.5H24.5834V24.5H25.5834V23.5ZM20.5 0.625V-0.375V0.625ZM0.166687 46.375H-0.833313V47.375H0.166687V46.375ZM25.5834 46.375V47.375H26.5834V46.375H25.5834ZM25.5834 27.3125V26.3125H24.5834V27.3125H25.5834ZM29.3959 27.3125H30.3959V26.3125H29.3959V27.3125ZM35.75 46.375V45.375V46.375ZM35.75 17.4167C35.3411 17.4167 34.949 17.2542 34.6599 16.9651L33.2457 18.3793C33.9099 19.0435 34.8107 19.4167 35.75 19.4167V17.4167ZM34.6599 16.9651C34.3708 16.676 34.2084 16.2839 34.2084 15.875H32.2084C32.2084 16.8143 32.5815 17.7151 33.2457 18.3793L34.6599 16.9651ZM34.2084 15.875C34.2084 15.4661 34.3708 15.074 34.6599 14.7849L33.2457 13.3707C32.5815 14.0349 32.2084 14.9357 32.2084 15.875H34.2084ZM34.6599 14.7849C34.949 14.4958 35.3411 14.3333 35.75 14.3333V12.3333C34.8107 12.3333 33.9099 12.7065 33.2457 13.3707L34.6599 14.7849ZM35.75 14.3333C36.1589 14.3333 36.551 14.4958 36.8401 14.7849L38.2544 13.3707C37.5902 12.7065 36.6893 12.3333 35.75 12.3333V14.3333ZM36.8401 14.7849C37.1293 15.074 37.2917 15.4661 37.2917 15.875H39.2917C39.2917 14.9357 38.9186 14.0349 38.2544 13.3707L36.8401 14.7849ZM37.2917 15.875C37.2917 16.2839 37.1293 16.676 36.8401 16.9651L38.2544 18.3793C38.9186 17.7151 39.2917 16.8143 39.2917 15.875H37.2917ZM36.8401 16.9651C36.551 17.2542 36.1589 17.4167 35.75 17.4167V19.4167C36.6893 19.4167 37.5902 19.0435 38.2544 18.3793L36.8401 16.9651ZM20.5 17.4167H5.25002V19.4167H20.5V17.4167ZM6.25002 18.4167V5.70833H4.25002V18.4167H6.25002ZM5.25002 6.70833H20.5V4.70833H5.25002V6.70833ZM40.9559 12.0834L40.9813 12.0579L39.5671 10.6437L39.5417 10.6691L40.9559 12.0834ZM40.9813 10.6437L31.5263 1.18873L30.1121 2.60294L39.5671 12.0579L40.9813 10.6437ZM30.1121 1.18873L27.4179 3.88289L28.8321 5.29711L31.5263 2.60294L30.1121 1.18873ZM27.4179 5.29711L32.7808 10.66L34.195 9.24581L28.8321 3.88289L27.4179 5.29711ZM33.1567 9.00937C30.3573 9.99215 28.3959 12.7411 28.3959 15.875H30.3959C30.3959 13.5697 31.8403 11.5912 33.8192 10.8965L33.1567 9.00937ZM28.3959 15.875C28.3959 16.8408 28.5861 17.7971 28.9557 18.6893L30.8034 17.924C30.5343 17.2744 30.3959 16.5781 30.3959 15.875H28.3959ZM28.9557 18.6893C29.3252 19.5816 29.8669 20.3923 30.5498 21.0752L31.9641 19.661C31.4669 19.1638 31.0725 18.5735 30.8034 17.924L28.9557 18.6893ZM30.5498 21.0752C31.929 22.4544 33.7996 23.2292 35.75 23.2292V21.2292C34.33 21.2292 32.9682 20.6651 31.9641 19.661L30.5498 21.0752ZM35.75 23.2292C36.8189 23.2292 37.7891 22.9906 38.6784 22.6176L37.905 20.7732C37.2184 21.0611 36.5112 21.2292 35.75 21.2292V23.2292ZM37.2917 21.6954V40.0208H39.2917V21.6954H37.2917ZM37.2917 40.0208C37.2917 40.4297 37.1293 40.8218 36.8401 41.111L38.2544 42.5252C38.9186 41.861 39.2917 40.9601 39.2917 40.0208H37.2917ZM36.8401 41.111C36.551 41.4001 36.1589 41.5625 35.75 41.5625V43.5625C36.6893 43.5625 37.5902 43.1894 38.2544 42.5252L36.8401 41.111ZM35.75 41.5625C35.3411 41.5625 34.949 41.4001 34.6599 41.111L33.2457 42.5252C33.9099 43.1894 34.8107 43.5625 35.75 43.5625V41.5625ZM34.6599 41.111C34.3708 40.8218 34.2084 40.4297 34.2084 40.0208H32.2084C32.2084 40.9601 32.5815 41.861 33.2457 42.5252L34.6599 41.111ZM34.2084 40.0208V28.5833H32.2084V40.0208H34.2084ZM34.2084 28.5833C34.2084 26.9699 33.5674 25.4226 32.4266 24.2818L31.0124 25.696C31.7781 26.4618 32.2084 27.5004 32.2084 28.5833H34.2084ZM32.4266 24.2818C31.2857 23.1409 29.7384 22.5 28.125 22.5V24.5C29.208 24.5 30.2466 24.9302 31.0124 25.696L32.4266 24.2818ZM28.125 22.5H25.5834V24.5H28.125V22.5ZM26.5834 23.5V5.70833H24.5834V23.5H26.5834ZM26.5834 5.70833C26.5834 4.09493 25.9424 2.54761 24.8016 1.40677L23.3874 2.82098C24.1531 3.58675 24.5834 4.62537 24.5834 5.70833H26.5834ZM24.8016 1.40677C23.6607 0.265921 22.1134 -0.375 20.5 -0.375V1.625C21.583 1.625 22.6216 2.05521 23.3874 2.82098L24.8016 1.40677ZM20.5 -0.375H5.25002V1.625H20.5V-0.375ZM5.25002 -0.375C1.87649 -0.375 -0.833313 2.3348 -0.833313 5.70833H1.16669C1.16669 3.43937 2.98106 1.625 5.25002 1.625V-0.375ZM-0.833313 5.70833V46.375H1.16669V5.70833H-0.833313ZM0.166687 47.375H25.5834V45.375H0.166687V47.375ZM26.5834 46.375V27.3125H24.5834V46.375H26.5834ZM25.5834 28.3125H29.3959V26.3125H25.5834V28.3125ZM28.3959 27.3125V40.0208H30.3959V27.3125H28.3959ZM28.3959 40.0208C28.3959 41.9713 29.1707 43.8418 30.5498 45.221L31.9641 43.8068C30.96 42.8027 30.3959 41.4408 30.3959 40.0208H28.3959ZM30.5498 45.221C31.929 46.6002 33.7996 47.375 35.75 47.375V45.375C34.33 45.375 32.9682 44.8109 31.9641 43.8068L30.5498 45.221ZM35.75 47.375C36.7158 47.375 37.6721 47.1848 38.5643 46.8152L37.799 44.9674C37.1494 45.2365 36.4531 45.375 35.75 45.375V47.375ZM38.5643 46.8152C39.4566 46.4456 40.2673 45.9039 40.9502 45.221L39.536 43.8068C39.0388 44.304 38.4486 44.6984 37.799 44.9674L38.5643 46.8152ZM40.9502 45.221C41.6331 44.5381 42.1748 43.7274 42.5444 42.8352L40.6966 42.0698C40.4276 42.7194 40.0332 43.3096 39.536 43.8068L40.9502 45.221ZM42.5444 42.8352C42.914 41.9429 43.1042 40.9866 43.1042 40.0208H41.1042C41.1042 40.724 40.9657 41.4202 40.6966 42.0698L42.5444 42.8352ZM43.1042 40.0208V15.875H41.1042V40.0208H43.1042ZM43.1042 15.875C43.1042 13.848 42.2814 11.9946 40.9559 10.6691L39.5417 12.0834C40.5037 13.0454 41.1042 14.3945 41.1042 15.875H43.1042Z" fill="black" mask="url(#path-1-inside-1_17_82)"/>
</svg>
